<?xml version="1.0" standalone="no"?>
<!DOCTYPE svg PUBLIC "-//W3C//DTD SVG 20010904//EN"
 "http://www.w3.org/TR/2001/REC-SVG-20010904/DTD/svg10.dtd">
<svg version="1.0" xmlns="http://www.w3.org/2000/svg"
 width="512.000000pt" height="512.000000pt" viewBox="0 0 512.000000 512.000000"
 preserveAspectRatio="xMidYMid meet">

<g transform="translate(0.000000,512.000000) scale(0.100000,-0.100000)"
fill="#000000" stroke="none">
<path d="M4625 5106 c-165 -32 -342 -108 -515 -223 -103 -68 -154 -115 -475
-434 l-360 -358 -1230 295 c-766 183 -1239 292 -1255 288 -15 -3 -129 -109
-283 -262 -287 -286 -296 -299 -260 -368 18 -36 78 -71 944 -547 508 -279 932
-513 943 -518 17 -10 -35 -65 -450 -480 -258 -258 -476 -469 -484 -469 -8 0
-172 43 -363 95 -192 52 -359 95 -373 95 -14 0 -37 -6 -52 -14 -44 -23 -387
-377 -402 -414 -9 -24 -10 -45 -4 -70 8 -34 47 -66 487 -397 l479 -360 348
-465 c376 -501 383 -509 458 -495 31 6 67 36 225 193 191 190 217 221 217 266
0 14 -43 181 -95 373 -52 191 -95 355 -95 363 0 8 211 226 469 484 465 465
469 469 484 445 8 -13 234 -424 502 -914 268 -490 498 -907 511 -927 26 -40
71 -60 119 -50 16 3 144 92 286 198 211 158 259 198 268 226 9 29 -8 113 -143
703 -85 369 -218 948 -296 1288 l-142 619 359 361 c313 315 369 376 432 471
40 60 87 139 105 175 79 156 136 356 136 472 0 118 -55 252 -121 296 -96 63
-236 86 -374 59z"/>
</g>
</svg>
