<?xml version="1.0" ?><!DOCTYPE svg  PUBLIC '-//W3C//DTD SVG 1.1//EN'  'http://www.w3.org/Graphics/SVG/1.1/DTD/svg11.dtd'><svg height="512px" style="enable-background:new 0 0 512 512;" version="1.1" viewBox="0 0 512 512" width="512px" xml:space="preserve" xmlns="http://www.w3.org/2000/svg" xmlns:xlink="http://www.w3.org/1999/xlink"><g id="_x32_71-quora"><g><g><path d="M478.301,390.2h-30.087c-1.54,13.862-10.78,31.625-33.883,31.625     c-21.049,0-36.245-14.581-50.824-36.758c45.382-35.117,76.699-89.843,76.699-157.099     c0.103-120.646-99.188-201.968-203.714-201.968c-102.37,0-202.995,81.835-202.995,201.968     c0,137.689,134.816,227.535,255.667,194.061c20.229,34.501,46.926,63.97,97.752,63.97     C470.905,485.999,480.146,408.683,478.301,390.2z M330.956,331.161c-20.023-29.982-44.87-53.598-93.95-53.598     c-31.317,0-55.755,10.268-70.849,23.411l12.527,24.949c6.366-3.079,13.349-4.107,20.329-4.107     c36.451,0,55.139,31.626,71.056,62.942c-10.269,3.082-21.255,4.312-33.577,4.312c-77.009,0-110.38-54.419-110.38-160.896     c0-107.196,33.371-162.13,110.38-162.13c78.241,0,111.61,54.934,111.61,161.924C348.206,270.888,342.558,305.595,330.956,331.161     z" style="fill:#B92B27;"/></g></g></g><g id="Layer_1"/></svg>